HIERARCHY
ROOT pelvis
{
  OFFSET 0 100 0
  CHANNELS 6 Xposition Yposition Zposition Zrotation Xrotation Yrotation
  JOINT pelvis_right_femur
  {
    OFFSET -10.78128 -3.44521 -0.5502486
    CHANNELS 3 Zrotation Xrotation Yrotation
    JOINT right_femur_tibia
    {
      OFFSET -0.8047443 -44.0398 -0.1307829
      CHANNELS 3 Zrotation Xrotation Yrotation
      JOINT right_tibia_foot
      {
        OFFSET 3.006224 -47.83518 -5
        CHANNELS 3 Zrotation Xrotation Yrotation
        End Site
        {
          OFFSET 0 -5 15
        }
      }
    }
  }
  JOINT pelvis_left_femur
  {
    OFFSET 10.78128 -3.44521 -0.5502486
    CHANNELS 3 Zrotation Xrotation Yrotation
    JOINT left_femur_tibia
    {
      OFFSET 0.8047443 -44.0398 -0.1307829
      CHANNELS 3 Zrotation Xrotation Yrotation
      JOINT left_tibia_foot
      {
        OFFSET -4.370144 -48.10324 -4.275266
        CHANNELS 3 Zrotation Xrotation Yrotation
        End Site
        {
          OFFSET 0 -5 15
        }
      }
    }
  }
  JOINT pelvis_spine1
  {
    OFFSET 0 6.468898 -3.129235
    CHANNELS 3 Zrotation Xrotation Yrotation
    JOINT spine1
    {
      OFFSET 0 23.15396 4.99043
      CHANNELS 3 Zrotation Xrotation Yrotation
      JOINT spine2
      {
        OFFSET 0 20.79997 -5.064912
        CHANNELS 3 Zrotation Xrotation Yrotation
        JOINT neck
        {
          OFFSET 0 14.38658 9.616178
          CHANNELS 3 Zrotation Xrotation Yrotation
          End Site
          {
            OFFSET 0 20 0
          }
        }
      }
      JOINT right_manubrium
      {
        OFFSET -5.722621 16.35077 3.967754
        CHANNELS 3 Zrotation Xrotation Yrotation
        JOINT right_clavicle
        {
          OFFSET -13.16364 1.694482 -4.693211
          CHANNELS 3 Zrotation Xrotation Yrotation
          JOINT right_humerus
          {
            OFFSET -28.5034 -0.3100689 -2.792744
            CHANNELS 3 Zrotation Xrotation Yrotation
            JOINT right_radius
            {
              OFFSET -25.15693 0.02248979 -1.271978
              CHANNELS 3 Zrotation Xrotation Yrotation
              End Site
              {
                OFFSET -15 0 0
              }
            }
          }
        }
      }
      JOINT left_manubrium
      {
        OFFSET 5.722621 16.35077 3.967754
        CHANNELS 3 Zrotation Xrotation Yrotation
        JOINT left_clavicle
        {
          OFFSET 13.16364 1.694482 -4.693211
          CHANNELS 3 Zrotation Xrotation Yrotation
          JOINT left_humerus
          {
            OFFSET 29.39168 -1.063119 -2.237045
            CHANNELS 3 Zrotation Xrotation Yrotation
            JOINT left_radius
            {
              OFFSET 24.59957 -0.9528479 0.9047498
              CHANNELS 3 Zrotation Xrotation Yrotation
              End Site
              {
                OFFSET 15 -0 -0
              }
            }
          }
        }
      }
    }
  }
}
MOTION
Frames: 7
Frame Time: 0.0416666666667
21.62463 101.0474 259.5111 -0.4733387 -1.365735 -3.260102 5.342174 10.65401 5.764626 -0 24.09571 -0 -0.7055867 -14.3241 -6.09717 2.227646 -31.89868 -4.23766 -0 23.85485 -0 -9.395436 -8.987024 17.92238 2.165267 -6.12014 9.164012 -2.779481 12.62444 -2.276684 1.444337 19.83839 5.567012 1.834617 -18.64789 6.129813 2.677502 -22.92256 13.09728 78.0925 17.91069 -1.354306 -0 0 27.10616 -24.13555 9.116137 13.21403 0.7758167 -16.39092 -2.780681 -89.01038 21.6949 24.19917 0 0 -10.86952 -2.3336 6.66795 14.43577
22.27237 100.82 266.6528 -0.5150185 -1.457052 -3.932606 4.498183 11.54757 5.677127 -0 29.6798 -0 0.7116336 -11.71184 -5.432656 1.007918 -30.45475 -5.823754 -0 25.0813 -0 -9.371289 -8.179566 17.69445 1.927138 -6.851315 9.540491 -2.642231 12.25798 -1.907991 1.629439 19.71576 5.43632 1.754097 -18.73749 6.238243 2.857449 -21.67976 12.96838 79.36552 17.85609 -2.829496 -0 0 25.53975 -23.81474 9.077117 12.79525 0.8656782 -15.68599 -2.643591 -89.12961 21.91718 23.98557 0 0 -10.73388 -2.680779 6.428014 15.08436
22.8489 101.1851 273.4423 -0.5099515 -1.444064 -3.855573 3.741532 10.96026 5.32152 -0 37.06932 -0 1.598242 -8.97565 -5.206343 -0.3270701 -27.71503 -7.296723 -0 26.96612 -0 -9.093727 -8.543348 17.37084 1.563007 -7.439701 9.578366 -2.44124 11.96774 -1.698938 1.792722 19.87612 5.329558 1.68957 -18.75575 6.360183 3.454264 -20.59129 13.04397 80.59938 17.96163 -4.618566 -0 0 23.01876 -23.2699 9.145465 12.08365 0.8310548 -15.42884 -2.765477 -88.69023 22.31515 23.11815 0 0 -10.86638 -2.838342 6.325149 15.42345
23.40083 102.1135 280.1463 -0.4498193 -1.306851 -2.878149 2.821663 5.875107 5.114583 -0 45.30274 -0 1.275934 -8.798835 -6.147604 -1.403768 -24.55174 -8.537929 -0 28.07321 -0 -8.465911 -10.01858 16.83632 1.114451 -8.31788 9.00898 -2.317726 12.02845 -1.912815 1.97458 20.34199 5.253355 1.651996 -18.75307 6.554437 4.345957 -19.13176 13.00439 82.24458 18.16554 -7.059355 -0 0 19.89877 -22.42709 9.24397 11.07964 0.5039792 -15.57756 -3.086141 -87.66516 22.89186 21.72929 0 0 -11.03001 -2.859135 6.330415 15.55927
24.01611 103.0297 286.1396 -0.3934351 -1.172253 -1.926103 3.514619 -0.1593082 4.530455 -0 52.62445 -0 0.881475 -8.526718 -7.032336 -2.161926 -20.88165 -9.379145 -0 27.91587 -0 -7.977621 -11.64885 16.25398 0.8063509 -8.816416 8.10152 -2.182195 12.01257 -2.332379 2.063392 20.90563 5.314697 1.575162 -18.62263 6.850605 5.129126 -18.16813 13.03819 83.52483 18.35425 -9.224588 -0 0 17.05506 -21.54244 9.312758 10.14015 0.1250712 -15.9473 -3.616623 -86.31228 23.55999 19.77109 0 0 -11.41577 -2.789977 6.445129 15.53517
24.53115 104.1972 291.9359 -0.3294201 -1.011328 -0.7934283 3.430841 -7.318477 4.403886 -0 56.74807 -0 0.5357207 -8.68341 -8.227657 -2.693367 -16.97064 -9.90082 -0 26.90429 -0 -7.69344 -13.10093 15.64939 0.4145159 -9.351918 6.765798 -1.966655 12.00992 -3.212885 2.086961 21.56217 5.484238 1.470212 -18.32917 7.232403 5.658966 -17.31869 12.72539 84.82188 18.39535 -11.36743 -0 0 14.87823 -20.70897 9.277823 9.403183 -0.1352696 -16.29022 -4.213309 -84.83373 24.24768 17.48635 0 0 -11.94909 -2.656165 6.646829 15.38064
25.04124 105.308 297.305 -0.2525851 -0.8062414 0.6398595 3.2434 -12.41715 3.80912 -0 57.25591 -0 1.012766 -7.438139 -9.493133 -3.130876 -12.68329 -10.1115 -0 25.11096 -0 -7.552425 -14.46237 14.95274 0.001645022 -9.521937 5.200202 -1.666662 11.88421 -4.569127 2.108045 22.16595 5.699241 1.373604 -17.90073 7.660528 5.502562 -16.55841 12.10284 85.79507 18.29733 -13.46923 -0 0 13.49385 -20.09014 9.142188 8.950891 -0.0885435 -16.80446 -4.934706 -83.2072 24.94063 14.69424 0 0 -12.86206 -2.432972 6.922053 15.02993
